<svg width="26" height="24" viewBox="0 0 26 24" fill="none" xmlns="http://www.w3.org/2000/svg">
<path d="M7.00032 4.71704H15.0042V14.7129H7.00032C6.47201 14.7129 5.96534 14.5031 5.59177 14.1295C5.21821 13.7559 5.00834 13.2493 5.00834 12.721V6.72102C5.00675 6.45842 5.05711 6.1981 5.15651 5.95504C5.25591 5.71197 5.40238 5.49096 5.58751 5.30471C5.77264 5.11847 5.99277 4.97067 6.23524 4.86981C6.4777 4.76896 6.73771 4.71704 7.00032 4.71704Z" stroke="black" stroke-width="2" stroke-miterlimit="10"/>
<path d="M2.99201 6.70911H4.99599V12.709H2.99201C2.73042 12.709 2.4714 12.6575 2.22972 12.5574C1.98804 12.4573 1.76845 12.3106 1.58347 12.1256C1.2099 11.752 1.00004 11.2454 1.00004 10.7171V8.71308C0.998454 8.45049 1.04881 8.19017 1.14821 7.9471C1.24761 7.70404 1.39408 7.48302 1.57921 7.29678C1.76434 7.11053 1.98447 6.96273 2.22694 6.86188C2.4694 6.76102 2.72941 6.7091 2.99201 6.70911V6.70911Z" stroke="black" stroke-width="2" stroke-miterlimit="10"/>
<path d="M24.1716 18.3968L14.9917 14.7249V4.71697L24.1716 1.04501C24.2625 1.00767 24.3612 0.993221 24.459 1.00294C24.5568 1.01267 24.6507 1.04626 24.7324 1.10077C24.8142 1.15528 24.8813 1.22904 24.9279 1.31557C24.9745 1.40209 24.9991 1.49874 24.9996 1.597V17.8208C25.0031 17.9211 24.9815 18.0207 24.9366 18.1104C24.8917 18.2002 24.825 18.2772 24.7426 18.3345C24.6602 18.3918 24.5648 18.4276 24.465 18.4384C24.3653 18.4493 24.2644 18.435 24.1716 18.3968V18.3968Z" stroke="black" stroke-width="2" stroke-miterlimit="10"/>
<path d="M7.00024 14.713L10.4442 21.6129C10.6097 21.9453 10.8648 22.2248 11.1808 22.4199C11.4967 22.6149 11.8609 22.7178 12.2322 22.7169H12.4002C12.7048 22.719 13.0059 22.6512 13.2802 22.5187C13.5546 22.3862 13.7948 22.1926 13.9826 21.9527C14.1704 21.7128 14.3006 21.433 14.3633 21.1348C14.426 20.8367 14.4194 20.5282 14.3442 20.233L12.9642 14.713H7.00024Z" stroke="black" stroke-width="2" stroke-miterlimit="10"/>
</svg>
