<svg
                width="20"
                height="20"
                viewBox="0 0 20 20"
                fill="none"
                xmlns="http://www.w3.org/2000/svg"
              >
                <path
                  fill-rule="evenodd"
                  clip-rule="evenodd"
                  d="M8.9873 0.746002C9.184 0.745697 9.39559 0.745789 9.62394 0.74588L10.0003 0.746002C13.0153 0.746002 13.3726 0.756805 14.5632 0.810913C15.6642 0.861267 16.2617 1.04523 16.6598 1.1998C17.1867 1.40445 17.5624 1.64911 17.9574 2.04434C18.3526 2.43954 18.5973 2.81595 18.8024 3.34293C18.957 3.74051 19.1412 4.33804 19.1913 5.43903C19.2454 6.62939 19.2572 6.98697 19.2572 10.0005C19.2572 13.0141 19.2454 13.3717 19.1913 14.562C19.141 15.663 18.957 16.2606 18.8024 16.6581C18.5978 17.1851 18.3526 17.5603 17.9574 17.9553C17.5622 18.3505 17.187 18.5952 16.6598 18.7999C16.2622 18.9551 15.6642 19.1386 14.5632 19.189C13.3729 19.2431 13.0153 19.2548 10.0003 19.2548C6.98508 19.2548 6.62773 19.2431 5.43736 19.189C4.33639 19.1382 3.73885 18.9542 3.34057 18.7996C2.81361 18.595 2.43721 18.3503 2.04199 17.9551C1.64676 17.5598 1.4021 17.1844 1.19696 16.6572C1.0424 16.2596 0.858202 15.6621 0.808093 14.5611C0.753986 13.3707 0.743164 13.0132 0.743164 9.99771C0.743164 6.98227 0.753986 6.62656 0.808093 5.43619C0.858437 4.33521 1.0424 3.73767 1.19696 3.33963C1.40163 2.81265 1.64676 2.43628 2.04199 2.04105C2.43721 1.64581 2.81361 1.40115 3.34057 1.19601C3.73862 1.04077 4.33639 0.857269 5.43736 0.806671C6.47906 0.759644 6.88275 0.745514 8.9873 0.743164V0.746002ZM16.028 2.62057C15.2799 2.62057 14.673 3.22684 14.673 3.97516C14.673 4.72327 15.2799 5.3302 16.028 5.3302C16.7761 5.3302 17.3831 4.72327 17.3831 3.97516C17.3831 3.22705 16.7761 2.62012 16.028 2.62012V2.62057ZM4.20203 10.0026C4.20203 6.80017 6.79837 4.20374 10.0007 4.20361C13.2032 4.20361 15.799 6.80008 15.799 10.0026C15.799 13.205 13.2034 15.8003 10.001 15.8003C6.79849 15.8003 4.20203 13.205 4.20203 10.0026Z"
                  fill="#CCCCCC"
                />
              </svg>