 <svg
                width="20"
                height="20"
                viewBox="0 0 20 12"
                fill="none"
                xmlns="http://www.w3.org/2000/svg"
              >
                <path
                  d="M10.9755 11.7834C10.9755 11.7834 11.3343 11.7448 11.5182 11.5539C11.6864 11.3789 11.6806 11.0487 11.6806 11.0487C11.6806 11.0487 11.6582 9.5071 12.3984 9.27948C13.1278 9.05561 14.0645 10.7703 15.0585 11.4297C15.8093 11.9282 16.3793 11.8191 16.3793 11.8191L19.0355 11.7834C19.0355 11.7834 20.4244 11.7006 19.7659 10.6443C19.7114 10.5578 19.3817 9.86265 17.7915 8.43481C16.1254 6.9402 16.3491 7.18193 18.3547 4.59622C19.5763 3.02165 20.0645 2.06035 19.9118 1.64931C19.7669 1.25614 18.8682 1.36054 18.8682 1.36054L15.8784 1.37841C15.8784 1.37841 15.6566 1.34925 15.4923 1.44426C15.3318 1.53738 15.2277 1.75465 15.2277 1.75465C15.2277 1.75465 14.755 2.97273 14.1238 4.00928C12.7923 6.19524 12.2603 6.31093 12.0424 6.17549C11.5357 5.8585 11.6621 4.90379 11.6621 4.22562C11.6621 2.10644 11.9948 1.22321 11.0153 0.994648C10.6905 0.918459 10.4512 0.868607 9.61964 0.860142C8.55268 0.849795 7.6501 0.863904 7.13851 1.10564C6.79809 1.26648 6.53549 1.62579 6.69597 1.64649C6.89341 1.67188 7.34081 1.76312 7.57812 2.0754C7.8845 2.47892 7.8738 3.38378 7.8738 3.38378C7.8738 3.38378 8.04984 5.87826 7.46238 6.18771C7.05972 6.40029 6.50728 5.96667 5.31972 3.98294C4.71184 2.96709 4.25277 1.84401 4.25277 1.84401C4.25277 1.84401 4.16426 1.63426 4.00573 1.52139C3.81412 1.385 3.54665 1.34267 3.54665 1.34267L0.705656 1.36054C0.705656 1.36054 0.278679 1.37183 0.122089 1.55148C-0.0169944 1.71045 0.11139 2.0406 0.11139 2.0406C0.11139 2.0406 2.33575 7.07376 4.85481 9.61057C7.16477 11.9357 9.78693 11.7834 9.78693 11.7834H10.9755Z"
                  fill="#CCCCCC"
                />
              </svg>